<?xml version="1.0" encoding="UTF-8" standalone="no"?><!DOCTYPE svg PUBLIC "-//W3C//DTD SVG 1.1//EN" "http://www.w3.org/Graphics/SVG/1.1/DTD/svg11.dtd"><svg width="100%" height="100%" viewBox="0 0 978 233" version="1.1" xmlns="http://www.w3.org/2000/svg" xmlns:xlink="http://www.w3.org/1999/xlink" xml:space="preserve" xmlns:serif="http://www.serif.com/" style="fill-rule:evenodd;clip-rule:evenodd;stroke-linejoin:round;stroke-miterlimit:2;"><g><g><path d="M233.323,148.628l0,-15.625c2.832,2.376 5.908,4.158 9.229,5.347c3.32,1.188 6.673,1.782 10.058,1.782c1.986,-0 3.719,-0.179 5.201,-0.537c1.481,-0.358 2.718,-0.855 3.71,-1.49c0.993,-0.634 1.734,-1.383 2.222,-2.246c0.488,-0.862 0.733,-1.798 0.733,-2.807c-0,-1.368 -0.391,-2.588 -1.172,-3.662c-0.782,-1.075 -1.848,-2.068 -3.199,-2.979c-1.35,-0.911 -2.954,-1.79 -4.809,-2.637c-1.856,-0.846 -3.858,-1.709 -6.006,-2.588c-5.469,-2.278 -9.546,-5.061 -12.231,-8.349c-2.686,-3.288 -4.029,-7.259 -4.029,-11.914c0,-3.646 0.733,-6.779 2.198,-9.4c1.464,-2.62 3.458,-4.777 5.981,-6.469c2.523,-1.693 5.444,-2.938 8.765,-3.736c3.32,-0.797 6.836,-1.196 10.546,-1.196c3.646,-0 6.877,0.22 9.693,0.659c2.816,0.44 5.412,1.115 7.788,2.027l-0,14.599c-1.172,-0.814 -2.45,-1.53 -3.833,-2.148c-1.384,-0.619 -2.808,-1.131 -4.273,-1.538c-1.464,-0.407 -2.921,-0.708 -4.37,-0.904c-1.448,-0.195 -2.824,-0.293 -4.126,-0.293c-1.79,0 -3.418,0.171 -4.882,0.513c-1.465,0.342 -2.702,0.822 -3.711,1.44c-1.009,0.619 -1.791,1.359 -2.344,2.222c-0.553,0.863 -0.83,1.831 -0.83,2.905c-0,1.172 0.309,2.222 0.928,3.15c0.618,0.928 1.497,1.806 2.636,2.637c1.14,0.83 2.523,1.643 4.151,2.441c1.627,0.797 3.466,1.619 5.517,2.466c2.8,1.172 5.314,2.417 7.544,3.735c2.23,1.318 4.142,2.808 5.737,4.468c1.596,1.66 2.816,3.556 3.663,5.688c0.846,2.133 1.269,4.615 1.269,7.447c0,3.906 -0.74,7.186 -2.222,9.839c-1.481,2.653 -3.491,4.801 -6.03,6.445c-2.539,1.644 -5.493,2.824 -8.862,3.54c-3.369,0.716 -6.926,1.074 -10.669,1.074c-3.841,0 -7.495,-0.325 -10.962,-0.976c-3.467,-0.652 -6.47,-1.628 -9.009,-2.93Z" style="fill-rule:nonzero;"/><path d="M334.593,151.313l-41.992,0l-0,-70.019l40.38,-0l0,12.842l-24.609,-0l0,15.576l22.9,-0l0,12.793l-22.9,-0l0,16.015l26.221,0l-0,12.793Z" style="fill-rule:nonzero;"/><path d="M396.019,148.823c-5.111,2.474 -11.784,3.711 -20.02,3.711c-10.742,0 -19.189,-3.157 -25.342,-9.473c-6.152,-6.315 -9.228,-14.729 -9.228,-25.244c-0,-11.198 3.458,-20.28 10.376,-27.246c6.917,-6.966 15.893,-10.449 26.928,-10.449c6.836,-0 12.598,0.863 17.286,2.588l-0,15.185c-4.688,-2.799 -10.027,-4.199 -16.016,-4.199c-6.576,0 -11.882,2.067 -15.918,6.201c-4.037,4.134 -6.055,9.733 -6.055,16.797c0,6.771 1.905,12.167 5.713,16.187c3.809,4.02 8.936,6.03 15.381,6.03c6.152,0 11.784,-1.497 16.895,-4.492l-0,14.404Z" style="fill-rule:nonzero;"/><path d="M465.306,120.991c-0,21.029 -9.799,31.543 -29.395,31.543c-19.01,0 -28.516,-10.27 -28.516,-30.81l0,-40.43l15.821,-0l-0,40.625c-0,11.328 4.427,16.992 13.281,16.992c8.691,0 13.037,-5.469 13.037,-16.406l0,-41.211l15.772,-0l-0,39.697Z" style="fill-rule:nonzero;"/><path d="M539.28,151.313l-18.115,0l-10.889,-18.017c-0.813,-1.367 -1.595,-2.588 -2.343,-3.662c-0.749,-1.075 -1.506,-1.994 -2.271,-2.759c-0.765,-0.765 -1.562,-1.351 -2.392,-1.758c-0.831,-0.407 -1.734,-0.61 -2.71,-0.61l-4.249,-0l0,26.806l-15.771,0l0,-70.019l25,-0c16.992,-0 25.488,6.348 25.488,19.043c0,2.441 -0.374,4.695 -1.123,6.763c-0.748,2.067 -1.806,3.93 -3.174,5.59c-1.367,1.66 -3.019,3.093 -4.956,4.297c-1.936,1.205 -4.093,2.149 -6.469,2.832l-0,0.196c1.041,0.325 2.05,0.854 3.027,1.586c0.977,0.733 1.921,1.587 2.832,2.564c0.911,0.977 1.782,2.026 2.612,3.149c0.83,1.123 1.587,2.222 2.271,3.296l13.232,20.703Zm-42.969,-58.203l0,19.483l6.836,-0c3.386,-0 6.104,-0.977 8.155,-2.93c2.083,-1.986 3.125,-4.443 3.125,-7.373c-0,-6.12 -3.662,-9.18 -10.987,-9.18l-7.129,0Z" style="fill-rule:nonzero;"/><path d="M587.815,151.313l-41.992,0l0,-70.019l40.381,-0l0,12.842l-24.609,-0l-0,15.576l22.9,-0l0,12.793l-22.9,-0l-0,16.015l26.22,0l0,12.793Z" style="fill-rule:nonzero;"/><path d="M718.235,81.294l-18.506,70.019l-17.48,0l-11.621,-44.921c-0.619,-2.344 -0.993,-4.965 -1.123,-7.862l-0.195,0c-0.293,3.19 -0.717,5.811 -1.27,7.862l-11.914,44.921l-18.213,0l-18.408,-70.019l17.236,-0l9.863,46.631c0.424,1.985 0.733,4.655 0.928,8.008l0.293,-0c0.13,-2.507 0.602,-5.241 1.416,-8.204l12.695,-46.435l16.895,-0l11.475,47.021c0.423,1.726 0.797,4.232 1.123,7.52l0.195,-0c0.13,-2.572 0.472,-5.176 1.025,-7.813l9.668,-46.728l15.918,-0Z" style="fill-rule:nonzero;"/><path d="M756.712,152.534c-10.026,0 -18.197,-3.263 -24.512,-9.79c-6.315,-6.527 -9.472,-15.031 -9.472,-25.513c-0,-11.067 3.206,-20.019 9.619,-26.855c6.412,-6.836 14.909,-10.254 25.488,-10.254c9.993,-0 18.074,3.271 24.243,9.814c6.169,6.543 9.253,15.17 9.253,25.879c0,11.003 -3.198,19.873 -9.595,26.612c-6.396,6.738 -14.738,10.107 -25.024,10.107Zm0.683,-58.838c-5.533,0 -9.928,2.075 -13.183,6.226c-3.255,4.15 -4.883,9.643 -4.883,16.479c0,6.934 1.628,12.419 4.883,16.455c3.255,4.037 7.519,6.055 12.793,6.055c5.436,0 9.749,-1.961 12.939,-5.884c3.19,-3.922 4.785,-9.367 4.785,-16.333c0,-7.259 -1.546,-12.907 -4.638,-16.943c-3.093,-4.037 -7.324,-6.055 -12.696,-6.055Z" style="fill-rule:nonzero;"/><path d="M861.692,151.313l-18.115,0l-10.889,-18.017c-0.813,-1.367 -1.595,-2.588 -2.343,-3.662c-0.749,-1.075 -1.506,-1.994 -2.271,-2.759c-0.765,-0.765 -1.562,-1.351 -2.392,-1.758c-0.83,-0.407 -1.734,-0.61 -2.71,-0.61l-4.248,-0l-0,26.806l-15.772,0l0,-70.019l25,-0c16.992,-0 25.488,6.348 25.488,19.043c0,2.441 -0.374,4.695 -1.123,6.763c-0.748,2.067 -1.806,3.93 -3.173,5.59c-1.368,1.66 -3.02,3.093 -4.957,4.297c-1.936,1.205 -4.093,2.149 -6.469,2.832l-0,0.196c1.041,0.325 2.051,0.854 3.027,1.586c0.977,0.733 1.921,1.587 2.832,2.564c0.912,0.977 1.782,2.026 2.612,3.149c0.831,1.123 1.587,2.222 2.271,3.296l13.232,20.703Zm-42.968,-58.203l-0,19.483l6.836,-0c3.385,-0 6.103,-0.977 8.154,-2.93c2.083,-1.986 3.125,-4.443 3.125,-7.373c-0,-6.12 -3.662,-9.18 -10.986,-9.18l-7.129,0Z" style="fill-rule:nonzero;"/><path d="M926.438,151.313l-19.921,0l-20.411,-30.42c-0.39,-0.585 -1.009,-1.871 -1.855,-3.857l-0.244,0l-0,34.277l-15.772,0l0,-70.019l15.772,-0l-0,33.105l0.244,0c0.391,-0.911 1.042,-2.213 1.953,-3.906l19.336,-29.199l18.799,-0l-24.414,33.398l26.513,36.621Z" style="fill-rule:nonzero;"/><path d="M929.905,148.628l0,-15.625c2.832,2.376 5.908,4.158 9.229,5.347c3.32,1.188 6.673,1.782 10.058,1.782c1.986,-0 3.719,-0.179 5.201,-0.537c1.481,-0.358 2.718,-0.855 3.71,-1.49c0.993,-0.634 1.734,-1.383 2.222,-2.246c0.488,-0.862 0.733,-1.798 0.733,-2.807c-0,-1.368 -0.391,-2.588 -1.172,-3.662c-0.782,-1.075 -1.848,-2.068 -3.199,-2.979c-1.35,-0.911 -2.954,-1.79 -4.809,-2.637c-1.856,-0.846 -3.858,-1.709 -6.006,-2.588c-5.469,-2.278 -9.546,-5.061 -12.231,-8.349c-2.686,-3.288 -4.029,-7.259 -4.029,-11.914c0,-3.646 0.733,-6.779 2.198,-9.4c1.464,-2.62 3.458,-4.777 5.981,-6.469c2.523,-1.693 5.444,-2.938 8.765,-3.736c3.32,-0.797 6.836,-1.196 10.547,-1.196c3.645,-0 6.876,0.22 9.692,0.659c2.816,0.44 5.412,1.115 7.788,2.027l-0,14.599c-1.172,-0.814 -2.45,-1.53 -3.833,-2.148c-1.383,-0.619 -2.808,-1.131 -4.272,-1.538c-1.465,-0.407 -2.922,-0.708 -4.371,-0.904c-1.448,-0.195 -2.823,-0.293 -4.126,-0.293c-1.79,0 -3.418,0.171 -4.882,0.513c-1.465,0.342 -2.702,0.822 -3.711,1.44c-1.009,0.619 -1.791,1.359 -2.344,2.222c-0.553,0.863 -0.83,1.831 -0.83,2.905c-0,1.172 0.309,2.222 0.928,3.15c0.618,0.928 1.497,1.806 2.636,2.637c1.14,0.83 2.523,1.643 4.151,2.441c1.627,0.797 3.466,1.619 5.517,2.466c2.8,1.172 5.314,2.417 7.544,3.735c2.23,1.318 4.142,2.808 5.738,4.468c1.595,1.66 2.815,3.556 3.662,5.688c0.846,2.133 1.269,4.615 1.269,7.447c0,3.906 -0.74,7.186 -2.222,9.839c-1.481,2.653 -3.491,4.801 -6.03,6.445c-2.539,1.644 -5.493,2.824 -8.862,3.54c-3.369,0.716 -6.926,1.074 -10.669,1.074c-3.841,0 -7.495,-0.325 -10.962,-0.976c-3.467,-0.652 -6.47,-1.628 -9.009,-2.93Z" style="fill-rule:nonzero;"/></g><g><path d="M73.403,169.518l-73.403,-42.38l0,-84.759l73.403,-42.379l73.404,42.379l-0,47.854l-17.742,-10.243l-0,-27.367l-55.662,-32.137l-55.661,32.137c-0,16.044 -0,64.272 -0,64.272l55.661,32.136l0,20.487Z"/><path d="M74.516,63.138l73.403,42.38l-0,84.759l-73.403,42.379l-73.404,-42.379l0,-47.854l17.742,10.243l0,27.367l55.662,32.137l55.661,-32.137c0,-16.044 0,-64.272 0,-64.272l-55.661,-32.136l-0,-20.487Z"/></g></g></svg>